<?xml version="1.0" encoding="UTF-8" standalone="no"?>
<svg
   version="1.2"
   viewBox="0 0 366.20114 133"
   width="366.20114"
   height="133"
   id="svg2"
   xmlns="http://www.w3.org/2000/svg"
   xmlns:svg="http://www.w3.org/2000/svg">
  <defs
     id="defs2" />
  <title
     id="title1">_main_logo-svg</title>
  <style
     id="style1">
		.s0 { fill: none;stroke: #6536c2;stroke-miterlimit:100;stroke-width: 7 } 
		.s1 { fill: none;stroke: #2a2e3d;stroke-miterlimit:100;stroke-width: 10 }
		.s2 { fill: none;stroke: #6536c2;stroke-miterlimit:100;stroke-width: 10 } 
	</style>
  <g
     id="g45"
     transform="translate(-6.5,-3.5000002)">
    <path
       d="M 215.8,81.1 V 25.3"
       id="path33"
       style="fill:none;stroke:#6536c2;stroke-width:5;stroke-dasharray:none;stroke-opacity:1" />
    <path
       d="M 215.8,111.7 V 95"
       id="path32"
       style="fill:none;stroke:#6536c2;stroke-width:5;stroke-dasharray:none;stroke-opacity:1" />
    <path
       d="m 352.9,49.3 h 17.3"
       id="path30"
       style="fill:none;stroke:#6536c2;stroke-width:5;stroke-dasharray:none;stroke-opacity:1" />
    <path
       d="m 314.19111,49.313702 h 17.3"
       id="path30-0"
       style="fill:none;stroke:#6536c2;stroke-width:5;stroke-dasharray:none;stroke-opacity:1" />
    <path
       d="M 341.8,39.1 V 20.6"
       id="path29"
       style="fill:none;stroke:#6536c2;stroke-width:5;stroke-dasharray:none;stroke-opacity:1" />
    <path
       d="M 256.81901,112.87685 232.6,75.8"
       id="path28"
       style="fill:none;stroke:#6536c2;stroke-width:5;stroke-dasharray:none;stroke-opacity:1" />
    <path
       d="M 254.7,54.7 222,84.5"
       id="path27"
       style="fill:none;stroke:#6536c2;stroke-width:5;stroke-dasharray:none;stroke-opacity:1" />
    <path
       d="m 281.8,49.5 h 17.3"
       id="path26"
       style="fill:none;stroke:#6536c2;stroke-width:5;stroke-dasharray:none;stroke-opacity:1" />
    <path
       d="M 299.1,111.7 V 46.975707"
       id="path25"
       style="fill:none;stroke:#6536c2;stroke-width:4.96273;stroke-dasharray:none;stroke-opacity:1" />
    <path
       d="m 215.9,131.2 c -5.5,0 -9.9,-4.2 -9.9,-9.5 0,-5.3 4.4,-9.5 9.9,-9.5 5.4,0 9.8,4.2 9.8,9.5 0,5.3 -4.4,9.5 -9.8,9.5 z"
       id="path24"
       style="fill:none;stroke:#6536c2;stroke-width:5;stroke-dasharray:none;stroke-opacity:1" />
    <path
       d="m 342.2,58.7 c -5.5,0 -9.9,-4.3 -9.9,-9.6 0,-5.2 4.4,-9.5 9.9,-9.5 5.4,0 9.8,4.3 9.8,9.5 0,5.3 -4.4,9.6 -9.8,9.6 z"
       id="path23"
       style="fill:none;stroke:#6536c2;stroke-width:5;stroke-dasharray:none;stroke-opacity:1" />
    <path
       d="m 299.2,131.2 c -5.5,0 -9.9,-4.2 -9.9,-9.5 0,-5.3 4.4,-9.5 9.9,-9.5 5.4,0 9.8,4.2 9.8,9.5 0,5.3 -4.4,9.5 -9.8,9.5 z"
       id="path22"
       style="fill:none;stroke:#6536c2;stroke-width:5;stroke-dasharray:none;stroke-opacity:1" />
    <path
       d="m 261.3,131.2 c -5.4,0 -9.8,-4.2 -9.8,-9.5 0,-5.3 4.4,-9.5 9.8,-9.5 5.5,0 9.9,4.2 9.9,9.5 0,5.3 -4.4,9.5 -9.9,9.5 z"
       id="path21"
       style="fill:none;stroke:#6536c2;stroke-width:5;stroke-dasharray:none;stroke-opacity:1" />
    <path
       d="m 215.9,95.1 c -3.8,0 -6.9,-2.9 -6.9,-6.6 0,-3.6 3.1,-6.6 6.9,-6.6 3.7,0 6.8,3 6.8,6.6 0,3.7 -3.1,6.6 -6.8,6.6 z"
       id="path20"
       style="fill:none;stroke:#6536c2;stroke-width:5;stroke-dasharray:none;stroke-opacity:1" />
    <path
       d="m 298.27788,30.238942 c -5,0 -9.1,-4.1 -9.1,-9.2 0,-5 4.1,-9.1 9.1,-9.1 5.1,0 9.2,4.1 9.2,9.1 0,5.1 -4.1,9.2 -9.2,9.2 z"
       id="path19"
       style="fill:none;stroke:#6536c2;stroke-width:5;stroke-dasharray:none;stroke-opacity:1" />
    <path
       d="m 215.9,26.1 c -5.5,0 -9.9,-4.2 -9.9,-9.5 0,-5.2 4.4,-9.5 9.9,-9.5 5.4,0 9.8,4.3 9.8,9.5 0,5.3 -4.4,9.5 -9.8,9.5 z"
       id="path18"
       style="fill:none;stroke:#6536c2;stroke-width:5;stroke-dasharray:none;stroke-opacity:1" />
    <path
       d="m 258.1,56.4 c -3.1,-0.9 -4.9,-4 -3.9,-7 0.9,-3 4.1,-4.7 7.2,-3.8 3,0.9 4.8,4 3.9,7 -0.9,2.9 -4.1,4.6 -7.2,3.8 z"
       id="path17"
       style="fill:none;stroke:#6536c2;stroke-width:5;stroke-dasharray:none;stroke-opacity:1" />
    <path
       d="m 370.2,114 c 0.1,12.9 -6.4,18 -9.8,18 -6.6,0 -9.95877,0.84351 -12.96189,-1.69357 C 341.53811,124.00643 342,115.4 342,115.4 l -0.2,-56.2"
       id="kit"
       style="fill:none;stroke:#6536c2;stroke-width:5;stroke-dasharray:none;stroke-opacity:1" />
  </g>
  <path
     style="fill:none;fill-rule:evenodd;stroke:#6536c2;stroke-width:5;stroke-linecap:butt;stroke-linejoin:miter;stroke-dasharray:none;stroke-opacity:1"
     d="M 70.195176,72.507386 103.32619,106.28837"
     id="path41" />
  <path
     style="fill:none;fill-rule:evenodd;stroke:#6536c2;stroke-width:5;stroke-linecap:butt;stroke-linejoin:miter;stroke-dasharray:none;stroke-opacity:1"
     d="M 26.928368,106.20453 59.314285,72.564284"
     id="path40" />
  <g
     id="g46"
     transform="translate(-6.5,-3.5000002)"
     style="stroke:#ffffff;stroke-opacity:1">
    <path
       d="M 119.5,33.1 C 112,33.1 106,27.3 106,20 c 0,-7.2 6,-13 13.5,-13 7.5,0 13.5,5.8 13.5,13 0,7.3 -6,13.1 -13.5,13.1 z"
       id="path9"
       style="fill:none;stroke:#ffffff;stroke-width:7;stroke-dasharray:none;stroke-opacity:1" />
    <path
       d="m 172.07233,126.90857 c -4.4,-0.2 -7.9,-3.7 -7.7,-8 0.1,-4.3 3.8,-7.6 8.2,-7.4 4.4,0.1 7.8,3.7 7.7,7.9 -0.2,4.3 -3.8,7.6 -8.2,7.5 z"
       id="path7-5"
       style="fill:none;stroke:#ffffff;stroke-width:7;stroke-dasharray:none;stroke-opacity:1" />
    <path
       d="m 75.557686,33.9 c -7.7,0 -13.9,-6 -13.9,-13.4 0,-7.5 6.2,-13.5 13.9,-13.5 7.7,0 14,6 14,13.5 0,7.4 -6.3,13.4 -14,13.4 z"
       id="path5-8-7"
       style="fill:none;stroke:#ffffff;stroke-width:7;stroke-dasharray:none;stroke-opacity:1" />
    <path
       style="fill:none;fill-rule:evenodd;stroke:#ffffff;stroke-width:7;stroke-linecap:butt;stroke-linejoin:miter;stroke-dasharray:none;stroke-opacity:1"
       d="m 23.948527,106.10008 -0.0032,-29.053951"
       id="path35" />
    <path
       style="fill:none;fill-rule:evenodd;stroke:#ffffff;stroke-width:7;stroke-linecap:butt;stroke-linejoin:miter;stroke-dasharray:none;stroke-opacity:1"
       d="m 23.945331,63.946473 0.0032,-30.046553"
       id="path36" />
    <path
       style="fill:none;fill-rule:evenodd;stroke:#ffffff;stroke-width:7;stroke-linecap:butt;stroke-linejoin:miter;stroke-dasharray:none;stroke-opacity:1"
       d="M 37.899907,20.45 H 61.657778"
       id="path37" />
    <path
       style="fill:none;fill-rule:evenodd;stroke:#ffffff;stroke-width:7;stroke-linecap:butt;stroke-linejoin:miter;stroke-dasharray:none;stroke-opacity:1;paint-order:normal"
       d="m 30.694378,70.48782 32.582396,-0.04094"
       id="path38" />
    <path
       style="fill:none;fill-rule:evenodd;stroke:#ffffff;stroke-width:7;stroke-linecap:butt;stroke-linejoin:miter;stroke-dasharray:none;stroke-opacity:1"
       d="m 119.48688,33.099994 -0.0734,73.000016"
       id="path42" />
    <path
       style="fill:none;fill-rule:evenodd;stroke:#ffffff;stroke-width:7;stroke-linecap:butt;stroke-linejoin:miter;stroke-dasharray:none;stroke-opacity:1"
       id="path43"
       d="m 133.29927,119.45952 31.0649,-0.20223" />
    <path
       d="m 23.894628,77.046301 c -3.7,0 -6.7,-2.9 -6.7,-6.5 0,-3.7 3,-6.6 6.7,-6.6 3.8,0 6.8,2.9 6.8,6.6 0,3.6 -3,6.5 -6.8,6.5 z"
       id="path8-6"
       style="fill:none;stroke:#ffffff;stroke-width:7;stroke-dasharray:none;stroke-opacity:1" />
    <path
       d="M 23.9,133 C 16.2,133 10,127 10,119.6 c 0,-7.5 6.2,-13.5 13.9,-13.5 7.7,0 14,6 14,13.5 0,7.4 -6.3,13.4 -14,13.4 z"
       id="path5"
       style="fill:none;stroke:#ffffff;stroke-width:7;stroke-dasharray:none;stroke-opacity:1" />
    <path
       d="m 119.4,133 c -7.7,0 -13.9,-6 -13.9,-13.4 0,-7.5 6.2,-13.5 13.9,-13.5 7.7,0 13.9,6 13.9,13.5 0,7.4 -6.2,13.4 -13.9,13.4 z"
       id="path6"
       style="fill:none;stroke:#ffffff;stroke-width:7;stroke-dasharray:none;stroke-opacity:1" />
    <path
       d="M 23.9,33.9 C 16.2,33.9 10,27.9 10,20.5 10,13 16.2,7 23.9,7 c 7.7,0 14,6 14,13.5 0,7.4 -6.3,13.4 -14,13.4 z"
       id="path5-8"
       style="fill:none;stroke:#ffffff;stroke-width:7;stroke-dasharray:none;stroke-opacity:1" />
  </g>
  <path
     style="fill:none;fill-rule:evenodd;stroke:#6536c2;stroke-width:5;stroke-linecap:butt;stroke-linejoin:miter;stroke-dasharray:none;stroke-opacity:1"
     d="M 72.15317,64.17416 200.15021,16.524802"
     id="path44" />
  <path
     d="m 64.484812,74.639952 c -4.4,-0.2 -7.9,-3.7 -7.7,-8 0.1,-4.3 3.8,-7.6 8.2,-7.4 4.4,0.1 7.8,3.7 7.7,7.9 -0.2,4.3 -3.8,7.6 -8.2,7.5 z"
     id="path7-0-2"
     style="fill:none;stroke:#6536c2;stroke-width:7;stroke-dasharray:none;stroke-opacity:1" />
</svg>
