<svg version="1.2" xmlns="http://www.w3.org/2000/svg" viewBox="0 0 141 141" width="141" height="141">
	<title>_main_logo-svg</title>
	<style>
		.s0 { fill: #fff }
		.s1 { fill: none;stroke: #6536c2;stroke-linecap: round;stroke-miterlimit:100;stroke-width: 10 }
		.s2 { fill: none;stroke: #2a2e3d;stroke-miterlimit:100;stroke-width: 10 }
		.s3 { fill: none;stroke: #6536c2;stroke-miterlimit:100;stroke-width: 10 }
	</style>
	<path id="circle" class="s0" d="m70.5 141c-39 0-70.5-31.5-70.5-70.5 0-39 31.5-70.5 70.5-70.5 39 0 70.5 31.5 70.5 70.5 0 39-31.5 70.5-70.5 70.5z"/>
	<path id="connect" class="s1" d="m55.3 104.9l25-28.5m11.3-0.8l17.1 20.5m-17.8-31.2l23.5-15.1"/>
	<path id="FL" fill-rule="evenodd" class="s2" d="m51.6 24.2c0-4-3.4-7.3-7.6-7.3-4.3 0-7.7 3.3-7.7 7.3 0 4.1 3.4 7.4 7.7 7.4 4.2 0 7.6-3.3 7.6-7.4zm45.4-0.1c0-4.5-3.7-8.1-8.3-8.1-4.6 0-8.4 3.6-8.4 8.1 0 4.4 3.8 8 8.4 8 4.6 0 8.3-3.6 8.3-8zm-46.6 43.6c0-3.3-2.8-6-6.2-6-3.4 0-6.2 2.7-6.2 6 0 3.3 2.8 5.9 6.2 5.9 3.4 0 6.2-2.6 6.2-5.9zm5.7 43.7c0-6.4-5.4-11.6-12.1-11.6-6.6 0-12 5.2-12 11.6 0 6.4 5.4 11.6 12 11.6 6.7 0 12.1-5.2 12.1-11.6zm-5-44h24.1m-31.1 34.9v-27.7m0-12.4v-32.7m10.1-5.4h30.8"/>
	<path id="center" fill-rule="evenodd" class="s3" d="m84.6 76.7c-4.3 0-7.7-3.3-7.7-7.5 0-4.1 3.4-7.5 7.7-7.5 4.3 0 7.8 3.4 7.8 7.5 0 4.2-3.5 7.5-7.8 7.5z"/>
</svg>